# AST/ASF file generated using VICON BodyLanguage
# -----------------------------------------------
:version 1.10
:name VICON
:units
  mass 1.0
  length 0.45
  angle deg
:documentation
   .ast/.asf automatically generated from VICON data using
   VICON BodyBuilder and BodyLanguage model FoxedUp or BRILLIANT.MOD
:root
   order TX TY TZ RX RY RZ
   axis XYZ
   position 0 0 0  
   orientation 0 0 0 
:bonedata
  begin
     id 1 
     name lhipjoint
     direction 0.528046 -0.759594 0.379717 
     length 2.39752 
     axis 0 0 0  XYZ
  end
  begin
     id 2 
     name lfemur
     direction 0.34202 -0.939693 0  
     length 7.31175  
     axis 0 0 20  XYZ
    dof rx ry rz
    limits (-160.0 20.0)
           (-70.0 70.0)
           (-60.0 70.0)
  end
  begin
     id 3 
     name ltibia
     direction 0.34202 -0.939693 0   
     length 7.52482   
     axis 0 0 20   XYZ
    dof rx
    limits (-10.0 170.0)
  end
  begin
     id 4 
     name lfoot
     direction 0.0675379 -0.185559 0.980309   
     length 2.00961   
     axis -90 7.62852e-016 20   XYZ
    dof rx rz
    limits (-45.0 90.0)
           (-70.0 20.0)
  end
  begin
     id 5 
     name ltoes
     direction 1.5352e-011 -4.22286e-011 1   
     length 1.01383   
     axis -90 7.62852e-016 20   XYZ
    dof rx
    limits (-90.0 20.0)
  end
  begin
     id 6 
     name rhipjoint
     direction -0.510274 -0.769251 0.384544   
     length 2.36742  
     axis 0 0 0  XYZ 
  end
  begin
     id 7 
     name rfemur
     direction -0.34202 -0.939693 0   
     length 7.45325   
     axis 0 0 -20   XYZ
    dof rx ry rz
    limits (-160.0 20.0)
           (-70.0 70.0)
           (-70.0 60.0)
  end
  begin
     id 8 
     name rtibia
     direction -0.34202 -0.939693 0   
     length 7.49587   
     axis 0 0 -20   XYZ
    dof rx
    limits (-10.0 170.0)
 end
 begin
     id 9 
     name rfoot
     direction -0.106475 -0.292536 0.950308   
     length 2.20898  
     axis -90 -7.62852e-016 -20   XYZ
    dof rx rz
    limits (-45.0 90.0)
           (-20.0 70.0)
  end
  begin
     id 10 
     name rtoes
     direction -1.53597e-011 -4.22023e-011 1   
     length 1.10065   
     axis -90 -7.62852e-016 -20   XYZ
    dof rx
    limits (-90.0 20.0)
  end
  begin
     id 11 
     name lowerback
     direction 0.0260024 0.998026 -0.0571652   
     length 2.11214   
     axis 0 0 0   XYZ
    dof rx ry rz
    limits (-20.0 45.0)
           (-30.0 30.0)
           (-30.0 30.0)
  end
  begin
     id 12 
     name upperback
     direction 0.0216202 0.999542 -0.0211766   
     length 2.11689   
     axis 0 0 0   XYZ
    dof rx ry rz
    limits (-20.0 45.0)
           (-30.0 30.0)
           (-30.0 30.0)
  end
  begin
     id 13 
     name thorax
     direction 0.00883312 0.999944 0.00589057   
     length 2.11821   
     axis 0 0 0   XYZ
    dof rx ry rz
    limits (-20.0 45.0)
           (-30.0 30.0)
           (-30.0 30.0)
  end
  begin
     id 14 
     name lowerneck
     direction -0.059386 0.994433 0.0870401   
     length 1.81176   
     axis 0 0 0   XYZ
    dof rx ry rz
    limits (-20.0 45.0)
           (-30.0 30.0)
           (-30.0 30.0)
  end
  begin
     id 15 
     name upperneck
     direction 0.0506457 0.97328 -0.223967   
     length 1.82382   
     axis 0 0 0   XYZ
    dof rx ry rz
    limits (-20.0 45.0)
           (-30.0 30.0)
           (-30.0 30.0)
  end
  begin
     id 16
     name head
     direction 0.0205902 0.996147 -0.0852487  
     length 1.84805  
     axis 0 0 0   XYZ
    dof rx ry rz
    limits (-20.0 45.0)
           (-30.0 30.0)
           (-30.0 30.0)
  end
  begin
     id 17 
     name lclavicle
     direction 0.949493 0.303881 -0.0782325  
     length 3.60584  
     axis 0 0 0   XYZ
    dof ry rz
    limits (-20.0 10.0)
           (0.0 20.0)
  end
  begin
     id 18 
     name lhumerus
     direction 1 -4.48965e-011 1.48782e-027   
     length 4.95681   
     axis 180 -30 -90   XYZ
    dof rx ry rz
    limits (-60.0 90.0)
           (-90.0 90.0)
           (-90.0 90.0)
  end
  begin
     id 19
     name lradius
     direction 1 -4.48952e-011 2.06528e-027   
     length 3.40915   
     axis 180 -30 -90   XYZ
    dof rx
    limits (-10.0 170.0)
  end
  begin
     id 20
     name lwrist
     direction 1 -4.48964e-011 1.28021e-027   
     length 1.70457   
     axis -1.61767e-015 90 90   XYZ
    dof ry
    limits (-180.0 0.0)
 end
  begin
     id 21 
     name lhand
     direction 1 -4.49094e-011 2.54887e-027   
     length 0.616403   
     axis -1.63363e-015 90 90   XYZ
    dof rx rz
    limits (-90.0 90.0)
           (-45.0 45.0)
  end
  begin
     id 22 
     name lfingers
     direction 1 -4.49002e-011 5.11407e-027   
     length 0.49696   
     axis -3.26723e-015 90 90   XYZ
    dof rx
    limits (0.0 90.0)
  end
  begin
     id 23
     name lthumb
     direction 0.707107 -6.34998e-011 0.707107   
     length 0.713539   
     axis -90 45 -2.25915e-014   XYZ
    dof rx rz
    limits (-45.0 45.0)
           (-45.0 45.0)
  end
  begin
     id 24 
     name rclavicle
     direction -0.937751 0.334612 -0.0930482   
     length 3.46287  
     axis 0 0 0   XYZ 
    dof ry rz
    limits (-10.0 20.0)
           (-20.0 0.0)
  end
  begin
     id 25 
     name rhumerus
     direction -1 -4.48962e-011 3.59972e-027  
     length 5.352   
     axis 180 30 90   XYZ
    dof rx ry rz
    limits (-90.0 60.0)
           (-90.0 90.0)
           (-90.0 90.0)
  end
  begin
     id 26 
     name rradius
     direction -1 -4.48987e-011 -3.76925e-027   
     length 3.43721   
     axis 180 30 90   XYZ
    dof rx
    limits (-10.0 170.0)
  end
  begin
     id 27 
     name rwrist
     direction -1 -4.48943e-011 1.28112e-027   
     length 1.7186   
     axis -1.61767e-015 -90 -90   XYZ
    dof ry
    limits (-180.0 0.0)
  end
  begin
     id 28
     name rhand
     direction -1 -4.49027e-011 2.55483e-027   
     length 0.72009   
     axis -1.63363e-015 -90 -90   XYZ
    dof rx rz
    limits (-90.0 90.0)
           (-45.0 45.0)
  end
  begin
     id 29
     name rfingers
     direction -1 -4.48827e-011 5.14506e-027   
     length 0.580555   
     axis -3.26723e-015 -90 -90   XYZ
    dof rx
    limits (0.0 90.0)
  end
  begin
     id 30
     name rthumb
     direction -0.707107 -6.34936e-011 0.707107   
     length 0.833564   
     axis -90 -45 2.25915e-014   XYZ
    dof rx rz
    limits (-45.0 45.0)
           (-45.0 45.0)
  end
:hierarchy
  begin
    root lhipjoint rhipjoint lowerback
    lhipjoint lfemur
    lfemur ltibia
    ltibia lfoot
    lfoot ltoes
    rhipjoint rfemur
    rfemur rtibia
    rtibia rfoot
    rfoot rtoes
    lowerback upperback
    upperback thorax
    thorax lowerneck lclavicle rclavicle
    lowerneck upperneck
    upperneck head
    lclavicle lhumerus
    lhumerus lradius
    lradius lwrist
    lwrist lhand lthumb
    lhand lfingers
    rclavicle rhumerus
    rhumerus rradius
    rradius rwrist
    rwrist rhand rthumb
    rhand rfingers
  end

#!OML:ASF H:\Terrain\Patient Classification 1\Terrain2\Thursday\justin.ASF
:FULLY-SPECIFIED
:DEGREES
749
root 20.8549 17.5946 -10.1624 -184.045 -56.1065 -175.355
lowerback 5.88838 0.328394 4.81674
upperback 2.56998 0.506039 4.52301
thorax -0.63972 0.158532 1.93032
lowerneck -12.4218 2.69325 -7.81461
upperneck 39.8432 3.39153 0.560705
head 16.1728 -0.6117 1.93983
rclavicle 2.36554e-014 -3.97569e-014
rhumerus -30.6944 -10.7599 -69.5848
rradius 34.6537
rwrist -15.0358
rhand -22.5831 13.6615
rfingers 7.12502
rthumb 3.84567 -16.2836
lclavicle 2.36554e-014 -3.97569e-014
lhumerus -36.0401 -0.968052 89.0592
lradius 48.2566
lwrist -2.79775
lhand -8.68687 17.7135
lfingers 7.12502
lthumb 17.2478 46.9681
rfemur -13.2135 -23.5627 21.8277
rtibia 47.9004
rfoot -16.9868 -21.9449
rtoes -6.11582
lfemur -6.186 2.70824 -16.7902
ltibia 28.4892
lfoot -16.568 -1.65845
ltoes -2.29134
750
root 20.8418 17.5822 -10.1561 -184.917 -56.5559 -174.305
lowerback 5.95886 0.400875 5.37854
upperback 2.60167 0.625035 4.60515
thorax -0.637821 0.215943 1.69494
lowerneck -12.573 2.64442 -7.98307
upperneck 39.9399 3.32761 0.765559
head 16.2542 -0.633549 2.055
rclavicle -5.64548e-014 5.40694e-014
rhumerus -30.913 -10.8774 -69.5599
rradius 34.623
rwrist -14.8274
rhand -22.3567 13.4758
rfingers 7.12502
rthumb 4.0643 -16.4651
lclavicle -5.64548e-014 5.40694e-014
lhumerus -36.1173 -1.74143 89.6306
lradius 48.5415
lwrist 0.789318
lhand -13.8716 22.0197
lfingers 7.12502
lthumb 12.2529 51.6407
rfemur -13.5086 -23.2846 22.3681
rtibia 48.6066
rfoot -16.6236 -22.1109
rtoes -6.23141
lfemur -6.21467 2.85432 -16.1032
ltibia 28.429
lfoot -16.5958 -2.64391
ltoes -0.522897
751
root 20.8224 17.5742 -10.1531 -184.968 -57.3771 -174.399
lowerback 6.01078 0.352609 5.28607
upperback 2.70614 0.554325 4.54553
thorax -0.560135 0.183331 1.68914
lowerneck -12.7731 2.66265 -8.19064
upperneck 39.9665 3.39499 0.989137
head 16.3009 -0.5959 2.20843
rclavicle -1.15693e-013 -1.27222e-014
rhumerus -31.0133 -10.8184 -69.5815
rradius 34.4962
rwrist -14.8716
rhand -22.5423 13.7131
rfingers 7.12502
rthumb 3.88509 -16.2313
lclavicle -1.15693e-013 -1.27222e-014
lhumerus -35.778 -0.230908 88.647
lradius 47.6162
lwrist -2.26404
lhand -10.172 19.4554
lfingers 7.12502
lthumb 15.818 48.8292
rfemur -13.6283 -23.3242 21.9965
rtibia 49.3918
rfoot -16.8881 -21.9546
rtoes -3.98258
lfemur -6.06089 2.68177 -16.2108
ltibia 28.3087
lfoot -16.6609 -3.4963
ltoes 1.37022
752
root 20.8015 17.5647 -10.1552 -184.161 -58.2849 -175.591
lowerback 6.08301 0.360348 4.58989
upperback 2.84006 0.538715 4.33136
thorax -0.470467 0.181075 1.85617
lowerneck -12.7978 2.59207 -8.09053
upperneck 39.8332 3.34794 0.879951
head 16.2467 -0.593174 2.13821
rclavicle 1.98785e-015 -6.99722e-014
rhumerus -31.2808 -11.2117 -69.488
rradius 34.4837
rwrist -14.5531
rhand -22.7987 14.0826
rfingers 7.12502
rthumb 3.63745 -15.8661
lclavicle 1.98785e-015 -6.99722e-014
lhumerus -35.5801 0.197103 88.2964
lradius 47.1372
lwrist -2.5994
lhand -9.9191 18.6924
lfingers 7.12502
lthumb 16.0615 48.0467
rfemur -13.6823 -23.4549 20.9344
rtibia 50.2392
rfoot -16.8495 -21.8209
rtoes -2.2193
lfemur -5.77139 2.38979 -16.9786
ltibia 28.1034
lfoot -16.6234 -4.18231
ltoes 3.68384
753
root 20.7848 17.557 -10.1601 -183.019 -59.092 -177.069
lowerback 6.14835 0.450509 3.71416
upperback 2.9359 0.628751 4.07476
thorax -0.418858 0.230439 2.0739
lowerneck -12.7446 2.46181 -7.89914
upperneck 39.752 3.1441 0.805291
head 16.2099 -0.642737 2.04024
rclavicle 1.45113e-014 -4.77083e-015
rhumerus -31.6326 -11.7494 -69.4069
rradius 34.507
rwrist -14.5
rhand -22.7787 14.0107
rfingers 7.12502
rthumb 3.6568 -15.9377
lclavicle 1.45113e-014 -4.77083e-015
lhumerus -35.5208 -0.297834 88.4352
lradius 46.9896
lwrist -0.596845
lhand -12.7432 19.5751
lfingers 7.12502
lthumb 13.3407 49.128
rfemur -13.9129 -23.5237 19.8062
rtibia 51.1423
rfoot -16.1676 -21.75
rtoes -2.43405
lfemur -5.57277 2.78208 -17.8049
ltibia 27.7824
lfoot -16.5339 -5.13694
ltoes 2.97462
754
root 20.7706 17.5461 -10.1621 -182.149 -59.8782 -178.155
lowerback 6.21727 0.488625 2.97963
upperback 2.99198 0.651833 3.95407
thorax -0.40926 0.241827 2.35876
lowerneck -12.7134 2.40808 -7.98479
upperneck 39.7417 3.06093 0.919627
head 16.1963 -0.665063 2.09391
rclavicle -1.68967e-014 5.725e-014
rhumerus -31.9627 -11.751 -69.4279
rradius 34.6551
rwrist -15.1225
rhand -22.9448 13.785
rfingers 7.12502
rthumb 3.49641 -16.1661
lclavicle -1.68967e-014 5.725e-014
lhumerus -35.4969 -0.331038 88.4694
lradius 46.7681
lwrist 0.775071
lhand -14.0406 20.5391
lfingers 7.12502
lthumb 12.09 50.1698
rfemur -14.2026 -23.5819 18.9506
rtibia 52.0196
rfoot -15.5627 -21.6115
rtoes -1.74862
lfemur -5.45563 3.35971 -18.3482
ltibia 27.4953
lfoot -16.4332 -6.328
ltoes 1.69325
755
root 20.7577 17.5464 -10.1658 -181.798 -60.5815 -178.681
lowerback 6.40183 0.484796 2.5931
upperback 3.01291 0.639262 3.88468
thorax -0.494695 0.234681 2.50387
lowerneck -12.6602 2.42198 -8.15689
upperneck 39.7202 3.10287 1.03342
head 16.1625 -0.649674 2.18174
rclavicle 1.96797e-014 -2.8625e-014
rhumerus -32.2775 -11.7196 -69.4603
rradius 34.6435
rwrist -14.9346
rhand -23.0028 13.5957
rfingers 7.12502
rthumb 3.44043 -16.3563
lclavicle 1.96797e-014 -2.8625e-014
lhumerus -35.4871 0.115806 88.1824
lradius 46.4053
lwrist 0.86737
lhand -13.4651 21.1807
lfingers 7.12502
lthumb 12.6449 50.778
rfemur -14.4036 -23.4051 18.4557
rtibia 52.8144
rfoot -15.5625 -21.4528
rtoes 1.22216
lfemur -5.29081 3.64362 -18.5567
ltibia 27.2712
lfoot -16.067 -7.47468
ltoes 4.27304
756
root 20.7413 17.5468 -10.1743 -181.886 -61.2538 -178.775
lowerback 6.58684 0.458952 2.5261
upperback 3.07966 0.607698 3.78578
thorax -0.527727 0.219453 2.44065
lowerneck -12.6518 2.43639 -8.26342
upperneck 39.6338 3.15054 1.12957
head 16.1066 -0.617824 2.2518
rclavicle -2.46493e-014 6.36111e-015
rhumerus -32.4635 -12.0788 -69.5157
rradius 34.3846
rwrist -14.0614
rhand -22.8707 13.4689
rfingers 7.12502
rthumb 3.56793 -16.481
lclavicle -2.46493e-014 6.36111e-015
lhumerus -35.3706 1.04391 87.2887
lradius 45.7385
lwrist -1.17896
lhand -10.5724 20.4623
lfingers 7.12502
lthumb 15.4324 49.8662
rfemur -14.478 -23.3111 18.1952
rtibia 53.5462
rfoot -15.461 -21.3746
rtoes 3.60321
lfemur -5.07966 3.86297 -18.5195
ltibia 27.1039
lfoot -15.7708 -8.48526
ltoes 6.68662
757
root 20.7226 17.539 -10.1821 -181.847 -62.0266 -178.952
lowerback 6.55685 0.399304 2.40673
upperback 3.25333 0.508518 3.72305
thorax -0.330264 0.168785 2.45011
lowerneck -12.7449 2.40433 -8.56382
upperneck 39.4287 3.1685 1.36352
head 16.0077 -0.59413 2.41318
rclavicle 5.96354e-016 -1.11319e-014
rhumerus -32.4344 -12.4228 -69.5992
rradius 34.1598
rwrist -13.8913
rhand -22.7642 13.5698
rfingers 7.12502
rthumb 3.67082 -16.3783
lclavicle 5.96354e-016 -1.11319e-014
lhumerus -34.9443 3.19581 85.7189
lradius 44.554
lwrist -6.37384
lhand -3.57811 16.4074
lfingers 7.12502
lthumb 22.159 45.1574
rfemur -14.5598 -23.4479 17.8763
rtibia 54.1868
rfoot -15.0182 -21.3825
rtoes 5.12398
lfemur -4.91774 3.79845 -18.5619
ltibia 26.9845
lfoot -15.6658 -9.19824
ltoes 5.97809
758
root 20.7072 17.531 -10.1905 -181.399 -62.8579 -179.504
lowerback 6.43881 0.319186 2.02029
upperback 3.43206 0.364394 3.7146
thorax -0.0799406 0.0919578 2.66875
lowerneck -12.8564 2.408 -8.93603
upperneck 39.355 3.26152 1.55799
head 15.9775 -0.568058 2.58236
rclavicle -1.13307e-014 -3.97569e-014
rhumerus -32.3197 -12.5627 -69.6092
rradius 33.8735
rwrist -13.7912
rhand -22.7001 13.8671
rfingers 7.12502
rthumb 3.73272 -16.08
lclavicle -1.13307e-014 -3.97569e-014
lhumerus -34.9214 1.71224 86.8584
lradius 44.7785
lwrist 0.338119
lhand -12.1873 19.9026
lfingers 7.12502
lthumb 13.8765 49.4197
rfemur -14.6964 -23.4278 17.3905
rtibia 54.7456
rfoot -15.0288 -21.2576
rtoes 8.41433
lfemur -4.86844 3.54663 -18.8217
ltibia 26.9287
lfoot -15.619 -9.66035
ltoes 4.09719
759
root 20.6935 17.5293 -10.2023 -181.376 -63.6252 -179.585
lowerback 6.44375 0.291258 1.89723
upperback 3.52643 0.314883 3.70623
thorax 0.0154351 0.0649288 2.73268
lowerneck -12.8443 2.39302 -8.91599
upperneck 39.3785 3.27866 1.46634
head 15.9907 -0.56711 2.54328
rclavicle -4.35338e-014 -1.59028e-014
rhumerus -32.4109 -12.9803 -69.6047
rradius 33.5335
rwrist -13.4069
rhand -22.767 14.2894
rfingers 7.12502
rthumb 3.66806 -15.6588
lclavicle -4.35338e-014 -1.59028e-014
lhumerus -34.683 1.84739 86.6652
lradius 44.2305
lwrist 1.22573
lhand -13.3219 20.493
lfingers 7.12502
lthumb 12.7829 50.0816
rfemur -14.7639 -23.2621 17.2115
rtibia 55.1879
rfoot -15.2023 -21.1264
rtoes 11.9619
lfemur -4.841 3.53193 -18.7909
ltibia 26.8768
lfoot -15.5717 -10.4269
ltoes 3.93555
